<?xml version="1.0" standalone="no"?>
<!DOCTYPE svg PUBLIC "-//W3C//DTD SVG 20010904//EN"
 "http://www.w3.org/TR/2001/REC-SVG-20010904/DTD/svg10.dtd">
<svg version="1.0" xmlns="http://www.w3.org/2000/svg"
 width="900.000000pt" height="338.000000pt" viewBox="0 0 900.000000 338.000000"
 preserveAspectRatio="xMidYMid meet">

<g transform="translate(0.000000,338.000000) scale(0.100000,-0.100000)"
fill="#000000" stroke="none">
<path d="M6599 2740 c-199 -23 -396 -107 -555 -237 l-63 -53 -1773 0 c-1449
-1 -1787 -3 -1848 -14 -557 -101 -815 -739 -485 -1201 80 -112 202 -208 333
-261 140 -56 50 -54 1990 -54 l1787 0 50 -42 c124 -102 267 -177 425 -220 74
-20 108 -23 260 -23 152 0 186 3 260 23 309 85 549 279 686 557 275 558 21
1226 -553 1454 -161 65 -345 90 -514 71z m226 -795 c378 -236 415 -261 399
-273 -26 -19 -835 -522 -840 -522 -2 0 -4 241 -4 535 0 447 2 535 13 528 8 -4
202 -125 432 -268z m-3255 10 l0 -76 -72 3 -73 3 -3 73 -3 72 76 0 75 0 0 -75z
m-593 38 c34 -139 121 -434 125 -427 3 5 33 109 69 232 l63 222 63 0 c42 0 63
-4 63 -12 0 -7 -41 -147 -91 -312 -50 -166 -94 -309 -96 -319 -5 -16 -16 -17
-90 -15 l-85 3 -93 305 c-50 168 -95 315 -99 328 -7 22 -6 22 78 22 85 0 86 0
93 -27z m1133 -303 l0 -330 -65 0 -65 0 0 32 0 32 -27 -26 c-41 -37 -66 -48
-116 -48 -96 0 -158 83 -165 224 -8 151 41 250 136 275 50 14 112 1 143 -30
19 -19 19 -18 19 91 l0 110 70 0 70 0 0 -330z m388 159 c60 -12 128 -67 150
-118 8 -20 18 -62 21 -93 l7 -58 -158 0 -158 0 0 -25 c0 -53 46 -105 94 -105
31 0 65 23 77 52 11 26 16 29 42 24 16 -3 45 -6 64 -6 31 0 34 -2 28 -22 -13
-43 -63 -103 -106 -125 -51 -28 -150 -31 -207 -7 -112 46 -166 179 -131 320
17 67 89 142 154 159 63 17 64 17 123 4z m594 -20 c139 -71 160 -316 35 -426
-47 -42 -96 -56 -173 -51 -82 5 -136 41 -176 117 -24 46 -28 65 -28 135 0 94
19 143 73 195 64 61 182 74 269 30z m-1522 -224 l0 -245 -73 0 -72 0 -4 235
c-1 129 0 239 4 245 3 5 37 10 76 10 l69 0 0 -245z"/>
<path d="M3856 1731 c-54 -60 -45 -238 15 -274 25 -16 67 1 84 33 20 38 20
178 1 225 -13 30 -20 35 -49 35 -20 0 -41 -7 -51 -19z"/>
<path d="M4407 1749 c-16 -9 -47 -65 -47 -84 0 -3 39 -5 86 -5 l87 0 -7 33
c-11 56 -70 84 -119 56z"/>
<path d="M4938 1748 c-9 -7 -22 -26 -28 -41 -15 -42 -12 -172 5 -212 29 -71
108 -65 133 10 20 59 11 188 -15 223 -23 30 -68 40 -95 20z"/>
</g>
</svg>
